<?xml version="1.0" encoding="UTF-8" standalone="no"?>
<!DOCTYPE svg PUBLIC "-//W3C//DTD SVG 1.1//EN"
 "http://www.w3.org/Graphics/SVG/1.1/DTD/svg11.dtd">
<!-- Generated by graphviz version 12.2.1 (0)
 -->
<!-- Pages: 1 -->
<svg width="438pt" height="237pt"
 viewBox="0.00 0.00 437.88 236.88" xmlns="http://www.w3.org/2000/svg" xmlns:xlink="http://www.w3.org/1999/xlink">
<g id="graph0" class="graph" transform="scale(1 1) rotate(0) translate(4 232.88)">
<polygon fill="white" stroke="none" points="-4,4 -4,-232.88 433.88,-232.88 433.88,4 -4,4"/>
<!-- APL -->
<g id="node1" class="node">
<title>APL</title>
<polygon fill="none" stroke="black" points="23.88,-228.88 0.75,-228.88 0.75,-214.69 23.88,-214.69 23.88,-228.88"/>
<text text-anchor="middle" x="12.31" y="-218.66" font-family="CMU Serif" font-size="10.00">APL</text>
</g>
<!-- TPR -->
<g id="node2" class="node">
<title>TPR</title>
<polygon fill="none" stroke="black" points="24.63,-185.94 0,-185.94 0,-171.75 24.63,-171.75 24.63,-185.94"/>
<text text-anchor="middle" x="12.31" y="-175.72" font-family="CMU Serif" font-size="10.00">TPR</text>
</g>
<!-- APL&#45;&gt;TPR -->
<g id="edge1" class="edge">
<title>APL&#45;&gt;TPR</title>
<path fill="none" stroke="black" d="M12.31,-214.4C12.31,-209.86 12.31,-203.53 12.31,-197.53"/>
<polygon fill="black" stroke="black" points="15.82,-197.85 12.32,-187.85 8.82,-197.85 15.82,-197.85"/>
</g>
<!-- CCHL -->
<g id="node3" class="node">
<title>CCHL</title>
<polygon fill="none" stroke="black" points="95,-143 63.62,-143 63.62,-128.81 95,-128.81 95,-143"/>
<text text-anchor="middle" x="79.31" y="-132.78" font-family="CMU Serif" font-size="10.00">CCHL</text>
</g>
<!-- TPR&#45;&gt;CCHL -->
<g id="edge2" class="edge">
<title>TPR&#45;&gt;CCHL</title>
<path fill="none" stroke="black" d="M23.08,-171.28C32.81,-165.33 47.38,-156.43 59.25,-149.18"/>
<polygon fill="black" stroke="black" points="60.8,-152.33 67.51,-144.13 57.15,-146.36 60.8,-152.33"/>
</g>
<!-- BP -->
<g id="node4" class="node">
<title>BP</title>
<polygon fill="none" stroke="black" points="51.5,-14.19 35.12,-14.19 35.12,0 51.5,0 51.5,-14.19"/>
<text text-anchor="middle" x="43.31" y="-3.97" font-family="CMU Serif" font-size="10.00">BP</text>
</g>
<!-- TPR&#45;&gt;BP -->
<g id="edge3" class="edge">
<title>TPR&#45;&gt;BP</title>
<path fill="none" stroke="black" d="M10.55,-171.53C8.47,-163.54 5.32,-149.32 5.32,-136.91 5.32,-136.91 5.32,-136.91 5.32,-49.03 5.32,-36.22 15.44,-25.73 25.23,-18.58"/>
<polygon fill="black" stroke="black" points="27.09,-21.54 33.61,-13.19 23.3,-15.66 27.09,-21.54"/>
</g>
<!-- HR -->
<g id="node5" class="node">
<title>HR</title>
<polygon fill="none" stroke="black" points="108.25,-100.07 90.38,-100.07 90.38,-85.88 108.25,-85.88 108.25,-100.07"/>
<text text-anchor="middle" x="99.31" y="-89.85" font-family="CMU Serif" font-size="10.00">HR</text>
</g>
<!-- CCHL&#45;&gt;HR -->
<g id="edge4" class="edge">
<title>CCHL&#45;&gt;HR</title>
<path fill="none" stroke="black" d="M82.44,-128.52C84.78,-123.74 88.08,-116.98 91.14,-110.7"/>
<polygon fill="black" stroke="black" points="94.24,-112.34 95.48,-101.82 87.95,-109.27 94.24,-112.34"/>
</g>
<!-- CO -->
<g id="node9" class="node">
<title>CO</title>
<polygon fill="none" stroke="black" points="154.25,-57.13 136.37,-57.13 136.37,-42.94 154.25,-42.94 154.25,-57.13"/>
<text text-anchor="middle" x="145.31" y="-46.91" font-family="CMU Serif" font-size="10.00">CO</text>
</g>
<!-- HR&#45;&gt;CO -->
<g id="edge18" class="edge">
<title>HR&#45;&gt;CO</title>
<path fill="none" stroke="black" d="M106.81,-85.39C109.5,-83.03 112.55,-80.34 115.31,-77.88 120.16,-73.58 125.42,-68.88 130.17,-64.63"/>
<polygon fill="black" stroke="black" points="132.18,-67.53 137.29,-58.24 127.51,-62.31 132.18,-67.53"/>
</g>
<!-- HRBP -->
<g id="node20" class="node">
<title>HRBP</title>
<polygon fill="none" stroke="black" points="132,-57.13 100.62,-57.13 100.62,-42.94 132,-42.94 132,-57.13"/>
<text text-anchor="middle" x="116.31" y="-46.91" font-family="CMU Serif" font-size="10.00">HRBP</text>
</g>
<!-- HR&#45;&gt;HRBP -->
<g id="edge19" class="edge">
<title>HR&#45;&gt;HRBP</title>
<path fill="none" stroke="black" d="M104.73,-85.4C106.39,-83.13 108.1,-80.49 109.31,-77.88 110.67,-74.98 111.79,-71.77 112.71,-68.61"/>
<polygon fill="black" stroke="black" points="116.11,-69.45 114.98,-58.91 109.29,-67.86 116.11,-69.45"/>
</g>
<!-- HREK -->
<g id="node21" class="node">
<title>HREK</title>
<polygon fill="none" stroke="black" points="52.38,-57.13 20.25,-57.13 20.25,-42.94 52.38,-42.94 52.38,-57.13"/>
<text text-anchor="middle" x="36.31" y="-46.91" font-family="CMU Serif" font-size="10.00">HREK</text>
</g>
<!-- HR&#45;&gt;HREK -->
<g id="edge20" class="edge">
<title>HR&#45;&gt;HREK</title>
<path fill="none" stroke="black" d="M90.11,-87.63C84.8,-85 78.05,-81.48 72.31,-77.88 65.89,-73.84 59.14,-68.99 53.25,-64.53"/>
<polygon fill="black" stroke="black" points="55.58,-61.91 45.54,-58.53 51.28,-67.44 55.58,-61.91"/>
</g>
<!-- HRSA -->
<g id="node22" class="node">
<title>HRSA</title>
<polygon fill="none" stroke="black" points="93.63,-57.13 63,-57.13 63,-42.94 93.63,-42.94 93.63,-57.13"/>
<text text-anchor="middle" x="78.31" y="-46.91" font-family="CMU Serif" font-size="10.00">HRSA</text>
</g>
<!-- HR&#45;&gt;HRSA -->
<g id="edge21" class="edge">
<title>HR&#45;&gt;HRSA</title>
<path fill="none" stroke="black" d="M98.93,-85.41C98.5,-81.14 97.58,-75.42 92.92,-66.92"/>
<polygon fill="black" stroke="black" points="96.03,-65.29 87.7,-58.74 90.12,-69.05 96.03,-65.29"/>
</g>
<!-- HYP -->
<g id="node6" class="node">
<title>HYP</title>
<polygon fill="none" stroke="black" points="185.62,-143 161,-143 161,-128.81 185.62,-128.81 185.62,-143"/>
<text text-anchor="middle" x="173.31" y="-132.78" font-family="CMU Serif" font-size="10.00">HYP</text>
</g>
<!-- STKV -->
<g id="node7" class="node">
<title>STKV</title>
<polygon fill="none" stroke="black" points="177.63,-100.07 146.99,-100.07 146.99,-85.88 177.63,-85.88 177.63,-100.07"/>
<text text-anchor="middle" x="162.31" y="-89.85" font-family="CMU Serif" font-size="10.00">STKV</text>
</g>
<!-- HYP&#45;&gt;STKV -->
<g id="edge5" class="edge">
<title>HYP&#45;&gt;STKV</title>
<path fill="none" stroke="black" d="M165.37,-128.51C163.23,-126.32 161.2,-123.69 160.06,-120.82 158.92,-117.93 158.52,-114.73 158.56,-111.57"/>
<polygon fill="black" stroke="black" points="161.99,-112.29 159.99,-101.89 155.07,-111.27 161.99,-112.29"/>
<text text-anchor="middle" x="168.69" y="-111.31" font-family="CMU Serif" font-size="10.00">[[1]]</text>
</g>
<!-- LVV -->
<g id="node8" class="node">
<title>LVV</title>
<polygon fill="none" stroke="black" points="208.88,-100.07 185.75,-100.07 185.75,-85.88 208.88,-85.88 208.88,-100.07"/>
<text text-anchor="middle" x="197.31" y="-89.85" font-family="CMU Serif" font-size="10.00">LVV</text>
</g>
<!-- HYP&#45;&gt;LVV -->
<g id="edge6" class="edge">
<title>HYP&#45;&gt;LVV</title>
<path fill="none" stroke="black" d="M177.06,-128.52C179.94,-123.62 184.03,-116.64 187.79,-110.23"/>
<polygon fill="black" stroke="black" points="190.71,-112.16 192.75,-101.77 184.67,-108.63 190.71,-112.16"/>
<text text-anchor="middle" x="197.49" y="-111.31" font-family="CMU Serif" font-size="10.00">[[1]]</text>
</g>
<!-- STKV&#45;&gt;CO -->
<g id="edge7" class="edge">
<title>STKV&#45;&gt;CO</title>
<path fill="none" stroke="black" d="M159.66,-85.58C157.67,-80.8 154.87,-74.04 152.26,-67.76"/>
<polygon fill="black" stroke="black" points="155.66,-66.81 148.59,-58.92 149.19,-69.5 155.66,-66.81"/>
</g>
<!-- CVP -->
<g id="node10" class="node">
<title>CVP</title>
<polygon fill="none" stroke="black" points="236.62,-57.13 212,-57.13 212,-42.94 236.62,-42.94 236.62,-57.13"/>
<text text-anchor="middle" x="224.31" y="-46.91" font-family="CMU Serif" font-size="10.00">CVP</text>
</g>
<!-- LVV&#45;&gt;CVP -->
<g id="edge8" class="edge">
<title>LVV&#45;&gt;CVP</title>
<path fill="none" stroke="black" d="M201.53,-85.58C204.84,-80.56 209.59,-73.36 213.9,-66.82"/>
<polygon fill="black" stroke="black" points="216.62,-69.06 219.21,-58.79 210.78,-65.2 216.62,-69.06"/>
</g>
<!-- PCWP -->
<g id="node11" class="node">
<title>PCWP</title>
<polygon fill="none" stroke="black" points="207.5,-57.13 173.12,-57.13 173.12,-42.94 207.5,-42.94 207.5,-57.13"/>
<text text-anchor="middle" x="190.31" y="-46.91" font-family="CMU Serif" font-size="10.00">PCWP</text>
</g>
<!-- LVV&#45;&gt;PCWP -->
<g id="edge9" class="edge">
<title>LVV&#45;&gt;PCWP</title>
<path fill="none" stroke="black" d="M196.22,-85.58C195.44,-81.04 194.36,-74.71 193.34,-68.7"/>
<polygon fill="black" stroke="black" points="196.82,-68.28 191.68,-59.01 189.92,-69.46 196.82,-68.28"/>
</g>
<!-- CO&#45;&gt;BP -->
<g id="edge10" class="edge">
<title>CO&#45;&gt;BP</title>
<path fill="none" stroke="black" d="M135.97,-44.57C134.75,-44.01 133.51,-43.45 132.31,-42.94 108.54,-32.73 80.71,-22.03 62.58,-15.22"/>
<polygon fill="black" stroke="black" points="63.99,-12.01 53.4,-11.8 61.55,-18.57 63.99,-12.01"/>
</g>
<!-- VMCH -->
<g id="node12" class="node">
<title>VMCH</title>
<polygon fill="none" stroke="black" points="331.5,-228.88 297.12,-228.88 297.12,-214.69 331.5,-214.69 331.5,-228.88"/>
<text text-anchor="middle" x="314.31" y="-218.66" font-family="CMU Serif" font-size="10.00">VMCH</text>
</g>
<!-- VTUB -->
<g id="node13" class="node">
<title>VTUB</title>
<polygon fill="none" stroke="black" points="362.38,-185.94 330.25,-185.94 330.25,-171.75 362.38,-171.75 362.38,-185.94"/>
<text text-anchor="middle" x="346.31" y="-175.72" font-family="CMU Serif" font-size="10.00">VTUB</text>
</g>
<!-- VMCH&#45;&gt;VTUB -->
<g id="edge11" class="edge">
<title>VMCH&#45;&gt;VTUB</title>
<path fill="none" stroke="black" d="M319.31,-214.4C323.33,-209.26 329.14,-201.83 334.34,-195.18"/>
<polygon fill="black" stroke="black" points="336.91,-197.57 340.31,-187.53 331.4,-193.26 336.91,-197.57"/>
</g>
<!-- MVS -->
<g id="node14" class="node">
<title>MVS</title>
<polygon fill="none" stroke="black" points="326.62,-185.94 302,-185.94 302,-171.75 326.62,-171.75 326.62,-185.94"/>
<text text-anchor="middle" x="314.31" y="-175.72" font-family="CMU Serif" font-size="10.00">MVS</text>
</g>
<!-- VMCH&#45;&gt;MVS -->
<g id="edge12" class="edge">
<title>VMCH&#45;&gt;MVS</title>
<path fill="none" stroke="black" d="M314.31,-214.4C314.31,-209.86 314.31,-203.53 314.31,-197.53"/>
<polygon fill="black" stroke="black" points="317.81,-197.85 314.31,-187.85 310.81,-197.85 317.81,-197.85"/>
</g>
<!-- VLNG -->
<g id="node15" class="node">
<title>VLNG</title>
<polygon fill="none" stroke="black" points="303,-143 271.62,-143 271.62,-128.81 303,-128.81 303,-143"/>
<text text-anchor="middle" x="287.31" y="-132.78" font-family="CMU Serif" font-size="10.00">VLNG</text>
</g>
<!-- VTUB&#45;&gt;VLNG -->
<g id="edge13" class="edge">
<title>VTUB&#45;&gt;VLNG</title>
<path fill="none" stroke="black" d="M336.84,-171.28C328.53,-165.51 316.21,-156.97 305.94,-149.84"/>
<polygon fill="black" stroke="black" points="308.03,-147.03 297.82,-144.2 304.04,-152.78 308.03,-147.03"/>
</g>
<!-- PRSS -->
<g id="node16" class="node">
<title>PRSS</title>
<polygon fill="none" stroke="black" points="351.12,-143 323.5,-143 323.5,-128.81 351.12,-128.81 351.12,-143"/>
<text text-anchor="middle" x="337.31" y="-132.78" font-family="CMU Serif" font-size="10.00">PRSS</text>
</g>
<!-- VTUB&#45;&gt;PRSS -->
<g id="edge14" class="edge">
<title>VTUB&#45;&gt;PRSS</title>
<path fill="none" stroke="black" d="M344.91,-171.46C343.91,-166.92 342.52,-160.59 341.2,-154.59"/>
<polygon fill="black" stroke="black" points="344.63,-153.89 339.06,-144.88 337.79,-155.4 344.63,-153.89"/>
</g>
<!-- VALV -->
<g id="node17" class="node">
<title>VALV</title>
<polygon fill="none" stroke="black" points="323.25,-100.07 293.37,-100.07 293.37,-85.88 323.25,-85.88 323.25,-100.07"/>
<text text-anchor="middle" x="308.31" y="-89.85" font-family="CMU Serif" font-size="10.00">VALV</text>
</g>
<!-- VLNG&#45;&gt;VALV -->
<g id="edge15" class="edge">
<title>VLNG&#45;&gt;VALV</title>
<path fill="none" stroke="black" d="M290.6,-128.52C293.05,-123.74 296.52,-116.98 299.74,-110.7"/>
<polygon fill="black" stroke="black" points="302.85,-112.3 304.3,-101.81 296.62,-109.11 302.85,-112.3"/>
</g>
<!-- MINV -->
<g id="node18" class="node">
<title>MINV</title>
<polygon fill="none" stroke="black" points="277.63,-100.07 246.99,-100.07 246.99,-85.88 277.63,-85.88 277.63,-100.07"/>
<text text-anchor="middle" x="262.31" y="-89.85" font-family="CMU Serif" font-size="10.00">MINV</text>
</g>
<!-- VLNG&#45;&gt;MINV -->
<g id="edge16" class="edge">
<title>VLNG&#45;&gt;MINV</title>
<path fill="none" stroke="black" d="M283.41,-128.52C280.42,-123.62 276.15,-116.64 272.24,-110.23"/>
<polygon fill="black" stroke="black" points="275.26,-108.47 267.07,-101.75 269.29,-112.11 275.26,-108.47"/>
</g>
<!-- ECO2 -->
<g id="node19" class="node">
<title>ECO2</title>
<polygon fill="none" stroke="black" points="307.25,-14.19 277.37,-14.19 277.37,0 307.25,0 307.25,-14.19"/>
<text text-anchor="middle" x="292.31" y="-3.97" font-family="CMU Serif" font-size="10.00">ECO2</text>
</g>
<!-- VLNG&#45;&gt;ECO2 -->
<g id="edge17" class="edge">
<title>VLNG&#45;&gt;ECO2</title>
<path fill="none" stroke="black" d="M287.57,-128.45C288.31,-109.63 290.49,-54.37 291.62,-25.74"/>
<polygon fill="black" stroke="black" points="295.11,-26.04 292.01,-15.91 288.12,-25.76 295.11,-26.04"/>
</g>
<!-- PVS -->
<g id="node26" class="node">
<title>PVS</title>
<polygon fill="none" stroke="black" points="350.5,-57.13 328.12,-57.13 328.12,-42.94 350.5,-42.94 350.5,-57.13"/>
<text text-anchor="middle" x="339.31" y="-46.91" font-family="CMU Serif" font-size="10.00">PVS</text>
</g>
<!-- VALV&#45;&gt;PVS -->
<g id="edge28" class="edge">
<title>VALV&#45;&gt;PVS</title>
<path fill="none" stroke="black" d="M313.16,-85.58C317.05,-80.44 322.67,-73.01 327.71,-66.36"/>
<polygon fill="black" stroke="black" points="330.24,-68.81 333.49,-58.73 324.66,-64.59 330.24,-68.81"/>
</g>
<!-- ACO2 -->
<g id="node27" class="node">
<title>ACO2</title>
<polygon fill="none" stroke="black" points="323.63,-57.13 292.99,-57.13 292.99,-42.94 323.63,-42.94 323.63,-57.13"/>
<text text-anchor="middle" x="308.31" y="-46.91" font-family="CMU Serif" font-size="10.00">ACO2</text>
</g>
<!-- VALV&#45;&gt;ACO2 -->
<g id="edge29" class="edge">
<title>VALV&#45;&gt;ACO2</title>
<path fill="none" stroke="black" d="M308.31,-85.58C308.31,-81.04 308.31,-74.71 308.31,-68.7"/>
<polygon fill="black" stroke="black" points="311.81,-69.04 308.31,-59.04 304.81,-69.04 311.81,-69.04"/>
</g>
<!-- INT -->
<g id="node23" class="node">
<title>INT</title>
<polygon fill="none" stroke="black" points="298.13,-185.94 276.49,-185.94 276.49,-171.75 298.13,-171.75 298.13,-185.94"/>
<text text-anchor="middle" x="287.31" y="-175.72" font-family="CMU Serif" font-size="10.00">INT</text>
</g>
<!-- INT&#45;&gt;VLNG -->
<g id="edge22" class="edge">
<title>INT&#45;&gt;VLNG</title>
<path fill="none" stroke="black" d="M287.31,-171.46C287.31,-166.92 287.31,-160.59 287.31,-154.59"/>
<polygon fill="black" stroke="black" points="290.81,-154.91 287.31,-144.91 283.81,-154.91 290.81,-154.91"/>
</g>
<!-- INT&#45;&gt;PRSS -->
<g id="edge23" class="edge">
<title>INT&#45;&gt;PRSS</title>
<path fill="none" stroke="black" d="M298.4,-173.24C303.52,-170.83 309.51,-167.58 314.31,-163.76 318.53,-160.41 322.56,-156.2 326.03,-152.12"/>
<polygon fill="black" stroke="black" points="328.61,-154.5 332.03,-144.47 323.1,-150.18 328.61,-154.5"/>
</g>
<!-- INT&#45;&gt;VALV -->
<g id="edge25" class="edge">
<title>INT&#45;&gt;VALV</title>
<path fill="none" stroke="black" d="M290.92,-171.67C294.69,-164.88 300.44,-153.54 303.31,-143.01 306.07,-132.91 307.33,-121.26 307.9,-111.86"/>
<polygon fill="black" stroke="black" points="311.39,-112.08 308.27,-101.95 304.4,-111.81 311.39,-112.08"/>
</g>
<!-- INT&#45;&gt;MINV -->
<g id="edge26" class="edge">
<title>INT&#45;&gt;MINV</title>
<path fill="none" stroke="black" d="M277.42,-171.49C268.89,-165.36 257.17,-155.24 252.06,-143.01 247.78,-132.74 250.34,-120.48 253.97,-110.8"/>
<polygon fill="black" stroke="black" points="257.05,-112.49 257.93,-101.93 250.66,-109.63 257.05,-112.49"/>
<text text-anchor="middle" x="260.69" y="-132.78" font-family="CMU Serif" font-size="10.00">[[3]]</text>
</g>
<!-- SHNT -->
<g id="node24" class="node">
<title>SHNT</title>
<polygon fill="none" stroke="black" points="394.63,-143 363.99,-143 363.99,-128.81 394.63,-128.81 394.63,-143"/>
<text text-anchor="middle" x="379.31" y="-132.78" font-family="CMU Serif" font-size="10.00">SHNT</text>
</g>
<!-- INT&#45;&gt;SHNT -->
<g id="edge24" class="edge">
<title>INT&#45;&gt;SHNT</title>
<path fill="none" stroke="black" d="M298.44,-173.28C299.74,-172.76 301.06,-172.24 302.31,-171.76 312.02,-168.02 314.74,-167.83 324.31,-163.76 335.12,-159.18 346.83,-153.55 356.67,-148.64"/>
<polygon fill="black" stroke="black" points="358.14,-151.82 365.47,-144.17 354.97,-145.58 358.14,-151.82"/>
<text text-anchor="middle" x="360.27" y="-154.25" font-family="CMU Serif" font-size="10.00">[[1]]</text>
</g>
<!-- SAO2 -->
<g id="node25" class="node">
<title>SAO2</title>
<polygon fill="none" stroke="black" points="385.5,-14.19 357.12,-14.19 357.12,0 385.5,0 385.5,-14.19"/>
<text text-anchor="middle" x="371.31" y="-3.97" font-family="CMU Serif" font-size="10.00">SAO2</text>
</g>
<!-- SHNT&#45;&gt;SAO2 -->
<g id="edge27" class="edge">
<title>SHNT&#45;&gt;SAO2</title>
<path fill="none" stroke="black" d="M378.97,-128.37C378.31,-116.01 376.8,-88.38 375.31,-65.13 374.47,-51.89 373.42,-36.92 372.6,-25.64"/>
<polygon fill="black" stroke="black" points="376.11,-25.65 371.9,-15.93 369.13,-26.16 376.11,-25.65"/>
<text text-anchor="middle" x="384.71" y="-68.38" font-family="CMU Serif" font-size="10.00">[[1]]</text>
</g>
<!-- PVS&#45;&gt;SAO2 -->
<g id="edge30" class="edge">
<title>PVS&#45;&gt;SAO2</title>
<path fill="none" stroke="black" d="M344.31,-42.64C348.33,-37.5 354.14,-30.07 359.34,-23.42"/>
<polygon fill="black" stroke="black" points="361.91,-25.81 365.31,-15.77 356.4,-21.5 361.91,-25.81"/>
</g>
<!-- ACO2&#45;&gt;CCHL -->
<g id="edge31" class="edge">
<title>ACO2&#45;&gt;CCHL</title>
<path fill="none" stroke="black" d="M292.51,-52.99C256.25,-57.47 164.27,-68.78 87.31,-77.88 71.88,-79.71 28.16,-74.28 17.82,-85.88 3.45,-102 30.29,-116.91 52.92,-125.96"/>
<polygon fill="black" stroke="black" points="51.48,-129.16 62.07,-129.38 53.93,-122.6 51.48,-129.16"/>
<text text-anchor="middle" x="35.06" y="-89.85" font-family="CMU Serif" font-size="10.00">[[0], [1]]</text>
</g>
<!-- ACO2&#45;&gt;ECO2 -->
<g id="edge32" class="edge">
<title>ACO2&#45;&gt;ECO2</title>
<path fill="none" stroke="black" d="M305.81,-42.64C303.99,-37.98 301.44,-31.43 299.04,-25.29"/>
<polygon fill="black" stroke="black" points="302.3,-24.03 295.4,-15.99 295.79,-26.58 302.3,-24.03"/>
<text text-anchor="middle" x="319.93" y="-25.44" font-family="CMU Serif" font-size="10.00">[[2], [3]]</text>
</g>
<!-- LVF -->
<g id="node28" class="node">
<title>LVF</title>
<polygon fill="none" stroke="black" points="229.5,-143 207.12,-143 207.12,-128.81 229.5,-128.81 229.5,-143"/>
<text text-anchor="middle" x="218.31" y="-132.78" font-family="CMU Serif" font-size="10.00">LVF</text>
</g>
<!-- LVF&#45;&gt;STKV -->
<g id="edge33" class="edge">
<title>LVF&#45;&gt;STKV</title>
<path fill="none" stroke="black" d="M206.67,-130.61C200.88,-128.18 193.93,-124.83 188.31,-120.82 185.47,-118.79 180.43,-113.72 175.53,-108.53"/>
<polygon fill="black" stroke="black" points="178.22,-106.29 168.88,-101.3 173.07,-111.03 178.22,-106.29"/>
</g>
<!-- LVF&#45;&gt;LVV -->
<g id="edge34" class="edge">
<title>LVF&#45;&gt;LVV</title>
<path fill="none" stroke="black" d="M217.58,-128.37C216.95,-124.16 215.8,-118.52 211.29,-110.21"/>
<polygon fill="black" stroke="black" points="214.31,-108.44 206.05,-101.8 208.37,-112.14 214.31,-108.44"/>
</g>
<!-- HIST -->
<g id="node29" class="node">
<title>HIST</title>
<polygon fill="none" stroke="black" points="242.75,-100.07 215.87,-100.07 215.87,-85.88 242.75,-85.88 242.75,-100.07"/>
<text text-anchor="middle" x="229.31" y="-89.85" font-family="CMU Serif" font-size="10.00">HIST</text>
</g>
<!-- LVF&#45;&gt;HIST -->
<g id="edge35" class="edge">
<title>LVF&#45;&gt;HIST</title>
<path fill="none" stroke="black" d="M220.22,-128.33C220.89,-125.96 221.65,-123.27 222.31,-120.82 223.16,-117.73 224.03,-114.43 224.87,-111.25"/>
<polygon fill="black" stroke="black" points="228.24,-112.19 227.36,-101.64 221.46,-110.44 228.24,-112.19"/>
</g>
<!-- PMB -->
<g id="node30" class="node">
<title>PMB</title>
<polygon fill="none" stroke="black" points="416,-185.94 390.62,-185.94 390.62,-171.75 416,-171.75 416,-185.94"/>
<text text-anchor="middle" x="403.31" y="-175.72" font-family="CMU Serif" font-size="10.00">PMB</text>
</g>
<!-- PMB&#45;&gt;SHNT -->
<g id="edge36" class="edge">
<title>PMB&#45;&gt;SHNT</title>
<path fill="none" stroke="black" d="M400.32,-171.54C398.31,-167.39 395.47,-161.75 390.25,-153.1"/>
<polygon fill="black" stroke="black" points="393.26,-151.3 384.99,-144.67 387.32,-155.01 393.26,-151.3"/>
</g>
<!-- PAP -->
<g id="node31" class="node">
<title>PAP</title>
<polygon fill="none" stroke="black" points="421.88,-143 398.75,-143 398.75,-128.81 421.88,-128.81 421.88,-143"/>
<text text-anchor="middle" x="410.31" y="-132.78" font-family="CMU Serif" font-size="10.00">PAP</text>
</g>
<!-- PMB&#45;&gt;PAP -->
<g id="edge37" class="edge">
<title>PMB&#45;&gt;PAP</title>
<path fill="none" stroke="black" d="M404.41,-171.46C405.19,-166.92 406.27,-160.59 407.29,-154.59"/>
<polygon fill="black" stroke="black" points="410.71,-155.34 408.95,-144.89 403.81,-154.16 410.71,-155.34"/>
</g>
<!-- FIO2 -->
<g id="node32" class="node">
<title>FIO2</title>
<polygon fill="none" stroke="black" points="353.38,-100.07 327.24,-100.07 327.24,-85.88 353.38,-85.88 353.38,-100.07"/>
<text text-anchor="middle" x="340.31" y="-89.85" font-family="CMU Serif" font-size="10.00">FIO2</text>
</g>
<!-- FIO2&#45;&gt;PVS -->
<g id="edge38" class="edge">
<title>FIO2&#45;&gt;PVS</title>
<path fill="none" stroke="black" d="M340.16,-85.58C340.05,-81.04 339.89,-74.71 339.75,-68.7"/>
<polygon fill="black" stroke="black" points="343.26,-68.94 339.51,-59.04 336.26,-69.12 343.26,-68.94"/>
<text text-anchor="middle" x="357.21" y="-68.38" font-family="CMU Serif" font-size="10.00">[[2], [3]]</text>
</g>
<!-- DISC -->
<g id="node33" class="node">
<title>DISC</title>
<polygon fill="none" stroke="black" points="362.75,-228.88 335.87,-228.88 335.87,-214.69 362.75,-214.69 362.75,-228.88"/>
<text text-anchor="middle" x="349.31" y="-218.66" font-family="CMU Serif" font-size="10.00">DISC</text>
</g>
<!-- DISC&#45;&gt;VTUB -->
<g id="edge39" class="edge">
<title>DISC&#45;&gt;VTUB</title>
<path fill="none" stroke="black" d="M348.85,-214.4C348.51,-209.86 348.05,-203.53 347.61,-197.53"/>
<polygon fill="black" stroke="black" points="351.12,-197.57 346.9,-187.85 344.14,-198.08 351.12,-197.57"/>
<text text-anchor="middle" x="365.51" y="-197.19" font-family="CMU Serif" font-size="10.00">[[2], [3]]</text>
</g>
<!-- ERLO -->
<g id="node34" class="node">
<title>ERLO</title>
<polygon fill="none" stroke="black" points="142.63,-100.07 111.99,-100.07 111.99,-85.88 142.63,-85.88 142.63,-100.07"/>
<text text-anchor="middle" x="127.31" y="-89.85" font-family="CMU Serif" font-size="10.00">ERLO</text>
</g>
<!-- ERLO&#45;&gt;HRBP -->
<g id="edge40" class="edge">
<title>ERLO&#45;&gt;HRBP</title>
<path fill="none" stroke="black" d="M125.74,-85.78C124.74,-81.86 123.37,-76.56 121.18,-68.47"/>
<polygon fill="black" stroke="black" points="124.63,-67.81 118.62,-59.08 117.87,-69.65 124.63,-67.81"/>
</g>
<!-- ERCA -->
<g id="node35" class="node">
<title>ERCA</title>
<polygon fill="none" stroke="black" points="86,-100.07 54.62,-100.07 54.62,-85.88 86,-85.88 86,-100.07"/>
<text text-anchor="middle" x="70.31" y="-89.85" font-family="CMU Serif" font-size="10.00">ERCA</text>
</g>
<!-- ERCA&#45;&gt;HREK -->
<g id="edge41" class="edge">
<title>ERCA&#45;&gt;HREK</title>
<path fill="none" stroke="black" d="M54.16,-87.24C46.39,-84.6 38.28,-81.19 36.06,-77.88 34.23,-75.14 33.43,-71.87 33.23,-68.57"/>
<polygon fill="black" stroke="black" points="36.69,-69.17 34.22,-58.86 29.72,-68.45 36.69,-69.17"/>
<text text-anchor="middle" x="44.69" y="-68.38" font-family="CMU Serif" font-size="10.00">[[2]]</text>
</g>
<!-- ERCA&#45;&gt;HRSA -->
<g id="edge42" class="edge">
<title>ERCA&#45;&gt;HRSA</title>
<path fill="none" stroke="black" d="M71.56,-85.58C72.45,-81.04 73.69,-74.71 74.86,-68.7"/>
<polygon fill="black" stroke="black" points="78.27,-69.49 76.76,-59.01 71.4,-68.15 78.27,-69.49"/>
<text text-anchor="middle" x="84.12" y="-68.38" font-family="CMU Serif" font-size="10.00">[[2]]</text>
</g>
<!-- ANES -->
<g id="node36" class="node">
<title>ANES</title>
<polygon fill="none" stroke="black" points="396.25,-228.88 366.37,-228.88 366.37,-214.69 396.25,-214.69 396.25,-228.88"/>
<text text-anchor="middle" x="381.31" y="-218.66" font-family="CMU Serif" font-size="10.00">ANES</text>
</g>
<!-- KINK -->
<g id="node37" class="node">
<title>KINK</title>
<polygon fill="none" stroke="black" points="429.88,-228.88 400.75,-228.88 400.75,-214.69 429.88,-214.69 429.88,-228.88"/>
<text text-anchor="middle" x="415.31" y="-218.66" font-family="CMU Serif" font-size="10.00">KINK</text>
</g>
</g>
</svg>
